<svg xmlns="http://www.w3.org/2000/svg" viewBox="0 0 512 512">
  <defs>
    <linearGradient id="g" x1="0" y1="0" x2="1" y2="1">
      <stop offset="0" stop-color="#0f766e"/>
      <stop offset="1" stop-color="#115e59"/>
    </linearGradient>
  </defs>
  <rect width="512" height="512" rx="96" fill="url(#g)"/>
  <path d="M256 120 L400 180 L400 340 L256 400 L112 340 L112 180 Z" fill="#ffffff" opacity="0.96"/>
  <path d="M256 120 L400 180 L256 240 L112 180 Z" fill="#5eead4"/>
  <path d="M256 240 L256 400 M256 240 L400 180 M256 240 L112 180" stroke="#0f766e" stroke-width="8" fill="none" opacity="0.35"/>
  <g fill="#0f766e">
    <rect x="180" y="288" width="6" height="52"/>
    <rect x="192" y="288" width="4" height="52"/>
    <rect x="202" y="288" width="8" height="52"/>
    <rect x="216" y="288" width="4" height="52"/>
    <rect x="226" y="288" width="6" height="52"/>
    <rect x="238" y="288" width="8" height="52"/>
    <rect x="252" y="288" width="4" height="52"/>
    <rect x="262" y="288" width="6" height="52"/>
    <rect x="274" y="288" width="4" height="52"/>
    <rect x="284" y="288" width="8" height="52"/>
    <rect x="298" y="288" width="6" height="52"/>
    <rect x="310" y="288" width="4" height="52"/>
    <rect x="320" y="288" width="8" height="52"/>
  </g>
</svg>